<?xml version="1.0" encoding="UTF-8"?>
<svg id="_レイヤー_1" data-name="レイヤー 1" xmlns="http://www.w3.org/2000/svg" width="48" height="48" viewBox="0 0 48 48">
  <defs>
    <style>
      .cls-1 {
        fill: none;
      }

      .cls-2 {
        fill: #a3c67b;
      }

      .cls-3 {
        fill: #bee3f8;
      }

      .cls-4 {
        fill: #fff;
      }

      .cls-5 {
        fill: #f29973;
      }
    </style>
  </defs>
  <g id="_生成オブジェクト" data-name="生成オブジェクト">
    <g>
      <path class="cls-3" d="M39.07,9.3l-.26.23c-.7.38-3.03.74-3.51,1.14-.27.22-.08.69-.02.96l.98.52c.01.43-.54.54-.67.68-.07.07.25.34-.33.56-1.78.68-3.96-1.27-2.77,2.43-.19.26-1.42-.07-1.67-.03-1.82.3-2.31,3.41.56,2.61,1.05-.29,1.75-1.08,2.67-1.46,1.85-.78,2.07.3,3.44.99.85.42,3.55.73,3.78.9,1.34,1.02-2.64,2.92-3.89,2.16-.93-.57-1.04-1.44-2.44-1.6-1.7-.19-6.56,2.29-7.17,3.7-.78,1.78.5,4.48,2.29,5.36.98.48,3.6-.82,4.62.39.41.49.25,1.58.42,2.16.12.39.54.72.64,1.03.4,1.19-.29,2.2-.04,3.18.32,1.29,1.74,3.14,1.95,4.62.41.43.75.33,1.15-.02.61-.53,4.14-5.36,4.49-6.14.38-.85,0-1.95.24-2.57.65-1.63,2.42-2.16,2.29-4.42-.02-.29-.33-.76-.32-.9,0-.05-.06-.09-.05-.12.03-.11,1.7-.99,1.91-1.24l.02-.06h.51s.01.07.02.1c1.48,15.62-13.9,26.54-30.02,22.82l-.03-.46c0-1.04-1.13-2.6-.75-3.59.12-.31.49-.54.6-.82.26-.65.98-3.16,1.29-3.49.39-.41.96-.37,1.29-.64.3-.24,1.79-4.18,1.69-4.4-.5-1.07-3.87-1.61-4.8-2.3-.7-.53-.84-1.43-1.67-2.1-.42-.34-3.43-1.73-4-1.89-1.26-.35-1.87.67-2.92,1.1l-.1.06v.12c.59,3.19-3.54,2.81-.43,5.93.79.79,1.9,1.25,2.67,1.89,1.82,1.54,2.35,6.55,3.05,8.79v.47s-.07-.02-.1-.04C5.07,42.01-.43,33.96.03,25.05c.23-.04.37.13.53.21,1.22.63,2.57.81,3.62,1.36,1.31.69,2.1,2.25,3.65,1.82l.13-.02v-.11c-.09-.55.19-1.79-.16-2.24-.46-.61-1.47-.66-1.93-1.13-.4-.39-.33-1.07-.8-1.4s-1.57-.1-1.18-1.38c.55-1.78,2.42-.68,3.62-.82,2.29-.27,3.84-4.41,6.55-5.28.72-.23,3.62-.15,2.75-1.81-.09-.18-2.03-2.2-2.2-2.28-1.65-.82-2.27,1.87-3.22,2.14-.84.23-1.41-1.51-2.27-1.74.93-.57,2.19-2.09,3.04-2.51.58-.29,1.46.02,1.89-.12.58-.19.61-.98.06-1.13-.91-.25-2.23.56-2.28-.84,1.57-.83,2.72-1.12,4.31-1.73.12-.05.22-.11.3-.2l.2.15c-.58,4.31,5.43,10.3,7.51,14.01,2.02-3.79,8.23-9.9,7.41-14.28,0-.03-.02-.07-.02-.1,0,.03.02.07.02.1l.37.02c2.58.79,5.01,2,7.15,3.56Z"/>
      <path class="cls-2" d="M47.26,21.34c-1.51.25-4.27-.66-4.5,1.33l.08.14c1.75.04,3.37.19,4.54,1.54l-.02.06c-.21.25-1.89,1.14-1.91,1.24,0,.03.06.08.05.12,0,.15.3.61.32.9.13,2.25-1.64,2.79-2.29,4.42-.25.62.13,1.72-.24,2.57-.35.78-3.87,5.62-4.49,6.14-.41.35-.75.45-1.15.02-.22-1.48-1.64-3.33-1.95-4.62-.24-.98.45-1.99.04-3.18-.1-.31-.53-.64-.64-1.03-.17-.58-.01-1.67-.42-2.16-1.02-1.21-3.64.09-4.62-.39-1.78-.88-3.07-3.58-2.29-5.36.62-1.41,5.47-3.89,7.17-3.7,1.4.16,1.51,1.03,2.44,1.6,1.25.77,5.22-1.14,3.89-2.16-.22-.17-2.93-.48-3.78-.9-1.38-.69-1.59-1.76-3.44-.99-.91.38-1.62,1.17-2.67,1.46-2.86.8-2.37-2.31-.56-2.61.26-.04,1.49.29,1.67.03-1.19-3.7.99-1.76,2.77-2.43.58-.22.26-.49.33-.56.13-.13.68-.25.67-.68l-.98-.52c-.06-.27-.25-.74.02-.96.48-.4,2.82-.75,3.51-1.14l.26-.23c4.14,3.02,7.08,7.26,8.3,12.01l-.11.02Z"/>
      <path class="cls-2" d="M17.88,47.27c-1.46-.34-2.74-.72-4.1-1.33-.03-.02-.07-.02-.1-.04.03.02.07.02.1.04v-.47c-.7-2.24-1.24-7.25-3.05-8.79-.76-.64-1.88-1.1-2.67-1.89-3.12-3.12,1.01-2.74.43-5.93v-.12s.1-.06.1-.06c1.05-.43,1.66-1.45,2.92-1.1.57.16,3.58,1.55,4,1.89.82.66.96,1.57,1.67,2.1.92.69,4.29,1.23,4.8,2.3.1.22-1.39,4.15-1.69,4.4-.33.27-.9.22-1.29.64-.31.33-1.03,2.84-1.29,3.49-.11.28-.48.51-.6.82-.38,1,.75,2.55.75,3.59l.03.46Z"/>
      <path class="cls-2" d="M.03,25.05c.37-7.16,5.15-13.74,11.8-17.29.05,1.4,1.36.59,2.28.84.56.15.52.94-.06,1.13-.43.14-1.3-.16-1.89.12-.86.42-2.11,1.94-3.04,2.51.86.23,1.43,1.97,2.27,1.74.95-.26,1.58-2.96,3.22-2.14.17.08,2.11,2.1,2.2,2.28.86,1.66-2.04,1.58-2.75,1.81-2.72.87-4.26,5.01-6.55,5.28-1.2.14-3.08-.96-3.62.82-.39,1.28.72,1.05,1.18,1.38s.4,1,.8,1.4c.47.47,1.47.52,1.93,1.13.34.45.06,1.69.16,2.24v.11l-.13.02c-1.55.43-2.33-1.13-3.65-1.82-1.04-.55-2.39-.73-3.62-1.36-.15-.08-.3-.25-.53-.21Z"/>
      <path class="cls-3" d="M47.26,21.34l.11-.02c.23.9.42,2.11.51,3.03,0,.03.01.07.02.1,0-.03-.01-.07-.02-.1h-.51s-.02.07-.02.07l.02-.06c-1.17-1.35-2.79-1.5-4.54-1.54l-.08-.14c.23-1.99,2.99-1.08,4.5-1.33Z"/>
      <g>
        <path class="cls-5" d="M31.53,5.62s.02.07.02.1c.83,4.38-5.39,10.49-7.41,14.28-2.08-3.71-8.09-9.7-7.51-14.01.02-.13.05-.26.08-.38,1.74-7.56,13.28-7.38,14.81.01Z"/>
        <path class="cls-4" d="M23.7,3.22c.08,0,.16-.01.24-.02,5.07-.2,5.59,6.86.52,7.28-5.14.43-5.89-6.76-.76-7.26Z"/>
      </g>
    </g>
    <g>
      <path class="cls-1" d="M42.71,22.8l.04-.13c.23-1.99,2.99-1.08,4.5-1.33"/>
      <path class="cls-1" d="M42.71,22.8h.12c1.75.05,3.37.2,4.54,1.55l-.02.06c-.21.25-1.89,1.14-1.91,1.24"/>
      <path class="cls-1" d="M45.44,25.65c-1.88-.11-2.12-1.54-2.73-2.86"/>
      <path class="cls-1" d="M38.82,9.53c-.7.38-3.03.74-3.51,1.14-.27.22-.08.69-.02.96.09.4.25.79.31,1.2-.07.07.25.34-.33.56-1.78.68-3.96-1.27-2.77,2.43-.19.26-1.42-.07-1.67-.03-1.82.3-2.31,3.41.56,2.61,1.05-.29,1.75-1.08,2.67-1.46,1.85-.78,2.07.3,3.44.99.85.42,3.55.73,3.78.9,1.34,1.02-2.64,2.92-3.89,2.16-.93-.57-1.04-1.44-2.44-1.6-1.7-.19-6.56,2.29-7.17,3.7-.78,1.78.5,4.48,2.29,5.36.98.48,3.6-.82,4.62.39.41.49.25,1.58.42,2.16.12.39.54.72.64,1.03.4,1.19-.29,2.2-.04,3.18.32,1.29,1.74,3.14,1.95,4.62.41.43.75.33,1.15-.02.61-.53,4.14-5.36,4.49-6.14.38-.85,0-1.95.24-2.57.65-1.63,2.42-2.16,2.29-4.42-.02-.29-.33-.76-.32-.9l-.05-.12"/>
      <line class="cls-1" x1="8.48" y1="28.74" x2="7.94" y2="28.42"/>
      <path class="cls-1" d="M14.05,9.73c-.43.14-1.3-.16-1.89.12-.86.42-2.11,1.94-3.04,2.51.86.23,1.43,1.97,2.27,1.74.95-.26,1.58-2.96,3.22-2.14.17.08,2.11,2.1,2.2,2.28.86,1.66-2.04,1.58-2.75,1.81-2.72.87-4.26,5.01-6.55,5.28-1.2.14-3.08-.96-3.62.82-.39,1.28.72,1.05,1.18,1.38s.4,1,.8,1.4c.47.47,1.47.52,1.93,1.13.34.45.06,1.69.16,2.24v.11"/>
      <path class="cls-1" d="M.55,25.26c1.22.63,2.57.81,3.62,1.36,1.31.69,2.1,2.25,3.65,1.82l.13-.02"/>
      <path class="cls-1" d="M8.48,28.74v.12c.59,3.19-3.54,2.81-.43,5.93.79.79,1.9,1.25,2.67,1.89,1.82,1.54,2.35,6.55,3.05,8.79"/>
      <path class="cls-1" d="M16.14,6.03c-1.59.61-2.74.9-4.31,1.73C5.17,11.31.4,17.89.03,25.05c-.46,8.91,5.05,16.96,13.64,20.85.03.02.07.02.1.04,1.36.61,2.64.99,4.1,1.33,16.12,3.73,31.5-7.2,30.02-22.82,0-.03-.01-.07-.02-.1-.09-.92-.28-2.13-.51-3.03-1.22-4.75-4.16-8.99-8.3-12.01-2.14-1.56-4.56-2.77-7.15-3.56"/>
      <path class="cls-1" d="M17.84,46.81c0-1.04-1.13-2.6-.75-3.59.12-.31.49-.54.6-.82.26-.65.98-3.16,1.29-3.49.39-.41.96-.37,1.29-.64.3-.24,1.79-4.18,1.69-4.4-.5-1.07-3.87-1.61-4.8-2.3-.7-.53-.84-1.43-1.67-2.1-.42-.34-3.43-1.73-4-1.89-1.26-.35-1.87.67-2.92,1.1l-.1.06"/>
    </g>
  </g>
</svg>