<?xml version="1.0" encoding="UTF-8"?>
<svg id="_レイヤー_1" data-name="レイヤー 1" xmlns="http://www.w3.org/2000/svg" width="44.82" height="39.39" viewBox="0 0 44.82 39.39">
  <defs>
    <style>
      .cls-1 {
        fill: #d27857;
      }

      .cls-1, .cls-2, .cls-3, .cls-4, .cls-5, .cls-6, .cls-7, .cls-8, .cls-9, .cls-10, .cls-11, .cls-12 {
        stroke-width: 0px;
      }

      .cls-2 {
        fill: #a6cfd5;
      }

      .cls-3 {
        fill: #ab5832;
      }

      .cls-4 {
        fill: #bcaa93;
      }

      .cls-5 {
        fill: #5f4e47;
      }

      .cls-6 {
        fill: #728037;
      }

      .cls-7 {
        fill: #9b9b9b;
      }

      .cls-8 {
        fill: #ffba02;
      }

      .cls-9 {
        fill: #ed6c31;
      }

      .cls-10 {
        fill: #b0b0b0;
      }

      .cls-11 {
        fill: #fff3e1;
      }

      .cls-12 {
        fill: #ab5932;
      }
    </style>
  </defs>
  <g>
    <polygon class="cls-3" points="7.63 13.34 11.78 10.49 11.78 6.56 12.3 6.56 12.3 2.48 7.1 2.51 7.1 6.66 7.63 6.63 7.63 13.34"/>
    <polygon class="cls-11" points="22.46 4.9 37.2 18.76 37.16 33.59 7.59 33.84 7.49 19.95 22.46 4.9"/>
    <path class="cls-5" d="M6.93,31.41s.04-.27.05-.81.02-1.23.04-2.07.01-1.74,0-2.69-.02-1.85-.02-2.71v-2.87l.95-.67v11.25l-1.02.56Z"/>
    <polygon class="cls-5" points="36.67 20.23 37.69 20.62 37.69 31.34 36.67 30.78 36.67 20.23"/>
    <polygon class="cls-4" points="22.54 6.49 37.69 21.39 37.69 18.3 22.57 2.62 7 17.38 7 21.08 22.54 6.49"/>
    <path class="cls-3" d="M5.45,16.75L21.16.93l2.39.18,16.31,17.54-2.18.04-.81-.83c-.54-.55-1.24-1.28-2.11-2.18s-1.83-1.89-2.88-2.97-2.12-2.15-3.18-3.22l-2.95-2.95c-.9-.9-1.64-1.63-2.21-2.18s-.88-.83-.93-.83-.36.27-.95.81-1.35,1.25-2.29,2.14-1.96,1.86-3.06,2.92-2.2,2.11-3.29,3.16-2.09,2.03-3.01,2.92-1.65,1.6-2.2,2.13l-.83.79-2.46.04.91-1.69Z"/>
    <path class="cls-9" d="M2.64,18.02s.28-.25.77-.74,1.16-1.15,2-1.99,1.79-1.76,2.83-2.78,2.12-2.07,3.23-3.16,2.2-2.15,3.25-3.18,2-1.96,2.85-2.79,1.52-1.49,2.04-1.99.79-.76.81-.81c.4-.35.74-.66,1.02-.91s.61-.39.98-.39c.4-.02.73.08,1,.32s.6.56,1,.98c.05.05.39.38,1.02,1s1.46,1.44,2.48,2.46,2.14,2.13,3.36,3.32,2.43,2.39,3.64,3.59,2.32,2.3,3.34,3.32l2.48,2.48,1.02,1.02c.45.47.53.74.25.81-.09.02-.32.04-.69.05s-.7.02-1.02.02h-.47L23.27,2.41l-.23-.19c-.15-.13-.31-.19-.47-.19-.12,0-.25.06-.4.19l-.23.19L5.45,18.44l-.62.02c-.41.01-.83.02-1.25.04s-.67.02-.74.02c-.12,0-.21-.04-.28-.12s-.05-.21.07-.37Z"/>
    <path class="cls-2" d="M32.13,23.85v-3.76h2.43c.26,0,.48.09.67.28s.28.41.28.67v2.81h-3.38Z"/>
    <path class="cls-2" d="M31.11,23.85h-3.59v-2.81c0-.26.09-.48.28-.67s.41-.28.67-.28h2.64v3.76Z"/>
    <path class="cls-2" d="M31.11,24.91v3.59h-2.64c-.26,0-.48-.09-.67-.28s-.28-.41-.28-.67v-2.64h3.59Z"/>
    <path class="cls-2" d="M32.13,24.91h3.38v2.64c0,.26-.09.48-.28.67s-.41.28-.67.28h-2.43v-3.59Z"/>
    <path class="cls-2" d="M13.43,23.85v-3.76h2.43c.26,0,.48.09.67.28.19.19.28.41.28.67v2.81h-3.37Z"/>
    <path class="cls-2" d="M12.41,23.85h-3.59v-2.81c0-.26.09-.48.28-.67s.41-.28.67-.28h2.64v3.76Z"/>
    <path class="cls-2" d="M12.41,24.91v3.59h-2.64c-.26,0-.48-.09-.67-.28s-.28-.41-.28-.67v-2.64h3.59Z"/>
    <path class="cls-2" d="M13.43,24.91h3.37v2.64c0,.26-.09.48-.28.67-.19.19-.41.28-.67.28h-2.43v-3.59Z"/>
    <path class="cls-1" d="M17.89,32.37l8.65.14-.02-.88c-.01-.59-.02-1.32-.02-2.21v-2.81c0-.98-.01-1.89-.04-2.71s-.04-1.43-.04-1.83c-.07-1.01-.46-1.86-1.16-2.55s-1.76-1.06-3.16-1.11c-.73-.02-1.41.13-2.04.47s-1.15.8-1.55,1.39-.61,1.22-.63,1.9v10.2Z"/>
    <path class="cls-12" d="M18.95,32.82h6.5v-.91c0-.61,0-1.38-.02-2.3s-.02-1.89-.02-2.88,0-1.89-.02-2.69-.03-1.36-.05-1.69c-.02-.77-.29-1.41-.81-1.92s-1.28-.79-2.29-.86c-.89-.05-1.66.19-2.3.7s-.98,1.27-1,2.25c-.02.33-.04.88-.04,1.67v2.64c0,.97,0,1.92.02,2.83s.02,1.67.02,2.27v.9Z"/>
    <path class="cls-1" d="M24.4,25.76l-4.39-.04c-.02-.7-.04-1.34-.04-1.9s.01-.94.04-1.12c0-.54.21-1,.63-1.39s.91-.57,1.48-.54c.73.02,1.27.22,1.63.58s.57.8.62,1.32c0,.19,0,.57.02,1.14s.02,1.22.02,1.95Z"/>
    <path class="cls-1" d="M20,27.34l4.39.04v3.66h-4.36l-.02-1.12c-.01-.75-.02-1.61-.02-2.57Z"/>
    <path class="cls-8" d="M24.4,26.46c0-.14.06-.29.18-.44s.3-.24.56-.26.46.05.6.21.2.36.18.6c-.05.49-.3.74-.77.74-.28,0-.47-.08-.58-.25s-.16-.36-.16-.6Z"/>
    <path class="cls-6" d="M27.56,35.52l.18-3.13.37-.54c.25-.36.64-.73,1.2-1.09s1.29-.53,2.23-.51c.33,0,.71.08,1.14.23s.84.22,1.21.19c.19-.02.43-.1.74-.23s.67-.21,1.09-.23.9.11,1.44.39c.45.21.79.54,1.04,1s.41.94.49,1.46.11.97.09,1.35-.08.63-.18.72c-.21.21-.75.32-1.62.32s-1.95.01-3.23.04c-.87.02-1.78.04-2.74.05s-1.78.01-2.44,0l-1-.02Z"/>
    <path class="cls-6" d="M6.12,35.28c-.14-.14-.22-.47-.25-.98s.02-1.01.14-1.48c.16-.7.45-1.24.84-1.6s.86-.62,1.37-.76c.59-.14,1.12-.14,1.62,0s1,.2,1.51.18c.52,0,1.04-.08,1.58-.23s1.11-.15,1.72.02c.59.14,1,.36,1.23.67s.37.58.4.83l.05.37.56.46-.46,2.81-1.46-.02c-.97-.01-2.15-.02-3.53-.02-1.38.02-2.58.02-3.6,0s-1.6-.11-1.74-.25Z"/>
    <path class="cls-10" d="M16.14,38.44s.28.03.84.02,1.3-.02,2.21-.02,1.88,0,2.88-.02,1.96-.02,2.87-.02,1.64,0,2.21-.02l.86-.02v-2.85h-.25l.04-3.23h-11.46v3.23h-.21v2.92Z"/>
    <polygon class="cls-7" points="28.02 37.18 16.14 37.18 16.14 38.44 28.02 38.37 28.02 37.18"/>
    <polygon class="cls-7" points="16.35 34.26 16.35 35.52 27.77 35.52 27.77 34.29 16.35 34.26"/>
  </g>
  <text/>
  <text/>
</svg>