<?xml version="1.0" encoding="UTF-8"?>
<svg id="_レイヤー_1" data-name="レイヤー 1" xmlns="http://www.w3.org/2000/svg" width="49" height="49" viewBox="0 0 49 49">
  <defs>
    <style>
      .cls-1 {
        fill: #231815;
      }

      .cls-2 {
        stroke: #231815;
      }

      .cls-2, .cls-3 {
        fill: #fff;
      }

      .cls-2, .cls-4 {
        stroke-miterlimit: 10;
      }

      .cls-4 {
        fill: #e71f19;
        stroke: #040000;
      }
    </style>
  </defs>
  <path class="cls-2" d="M2.5.5h43.99c1.11,0,2,.9,2,2v44.01c0,1.1-.89,1.99-1.99,1.99H2.49c-1.1,0-1.99-.89-1.99-1.99V2.5C.5,1.4,1.4.5,2.5.5Z"/>
  <path class="cls-4" d="M2.51.5h43.97c1.11,0,2.01.9,2.01,2.01v10.06H.5V2.51C.5,1.4,1.4.5,2.51.5Z"/>
  <g>
    <path class="cls-3" d="M18.3,4.76c-.19.12-.42.2-.63.25-.01,0-.03,0-.05,0-.13,0-.28-.1-.28-.18,0-.04.02-.07.07-.09.31-.13.6-.33.8-.5.05-.04.19-.26.29-.26.11,0,.32.14.32.28,0,.12-.04.31-.04.52v3.57c0,.2,0,.62.01.82,0,.05-.06.07-.14.07-.15,0-.37-.08-.37-.2,0-.12.01-.49.01-.64v-3.65Z"/>
    <path class="cls-3" d="M22.49,3.98c.95,0,1.42,1.12,1.42,2.62s-.5,2.71-1.51,2.71c-1.1,0-1.5-1.18-1.5-2.59,0-1.31.45-2.35.67-2.35.05,0,.1.04.13.09.22-.29.48-.48.79-.48ZM23.43,6.55c0-1.08-.22-2.11-.97-2.11-.43,0-1.08.79-1.08,2.27,0,1.13.16,2.14,1,2.14.75,0,1.05-1.02,1.05-2.3Z"/>
    <path class="cls-3" d="M30.66,7.28l-2.42.11c-.24,1.14-.8,1.78-1.45,2.36-.1.09-.18.12-.22.12-.03,0-.05-.01-.05-.05,0-.04.03-.11.11-.2,1.09-1.33,1.34-2.32,1.34-4.43v-.69c0-.22,0-.42-.07-.62-.01-.04-.02-.07-.02-.1,0-.04.02-.06.06-.06.07,0,.21.06.46.2l2.36-.15s.05,0,.07,0c.17,0,.28.19.28.27,0,.07-.04.11-.04.18l.03,5.05c0,.09,0,.18,0,.25,0,.34-.25.45-.34.45-.24,0-1.18-.86-1.18-1.06,0-.03.01-.04.05-.04.05,0,.12.03.22.09.24.16.48.28.81.41v-2.09ZM30.65,5.74l-2.27.1c-.01.39-.03.83-.08,1.15l2.35-.11v-1.14ZM30.64,4.2l-2.23.15v1.09s2.24-.12,2.24-.12v-1.12Z"/>
  </g>
  <g>
    <path class="cls-1" d="M24.1,31.56c0,3.01-1.63,5.58-5.27,5.58-1.75,0-2.98-.66-4.08-1.92-.1-.12-.16-.31-.16-.5,0-.57.34-1.25.66-1.25.08,0,.14.05.22.14.86,1.25,1.81,2.04,3.36,2.04,2.75,0,3.86-1.92,3.86-4.07,0-1.92-1.25-3.19-3-3.19-.2,0-1.17.07-1.53.19-.04,0-.08.02-.1.02-.38,0-.68-.64-.68-1.06,0-.21.08-.38.24-.4,2.47-.28,4.46-1.61,4.46-3.46,0-1.56-.8-2.37-2.33-2.37-1.25,0-2.31.59-3.34,1.92-.06.09-.22.31-.42.31-.1,0-.68-.43-.68-1.02,0-.24.1-.43.22-.54,1.07-1.35,2.43-2.13,4.18-2.13,2.25,0,3.76,1.37,3.76,3.67,0,1.92-1,3.34-2.63,3.93,1.83.02,3.26,1.61,3.26,4.12Z"/>
    <path class="cls-1" d="M30.9,22.38c-.58.4-1.27.64-1.89.8-.04.02-.1.02-.16.02-.38,0-.86-.31-.86-.57,0-.12.06-.21.22-.28.94-.43,1.81-1.06,2.41-1.61.16-.14.58-.83.88-.83.32,0,.98.45.98.92,0,.38-.12.99-.12,1.68v11.57c0,.64.02,2.01.04,2.65,0,.17-.18.24-.42.24-.46,0-1.11-.26-1.11-.66,0-.38.04-1.59.04-2.08v-11.86Z"/>
  </g>
</svg>