<?xml version="1.0" encoding="UTF-8"?>
<svg id="_レイヤー_1" data-name="レイヤー 1" xmlns="http://www.w3.org/2000/svg" width="49" height="49" viewBox="0 0 49 49">
  <defs>
    <style>
      .cls-1 {
        fill: #231815;
      }

      .cls-2 {
        stroke: #231815;
      }

      .cls-2, .cls-3 {
        fill: #fff;
      }

      .cls-2, .cls-4 {
        stroke-miterlimit: 10;
      }

      .cls-5 {
        fill: #58c0c9;
      }

      .cls-4 {
        fill: #e71f19;
        stroke: #040000;
      }
    </style>
  </defs>
  <path class="cls-2" d="M2.5.5h43.99c1.11,0,2,.9,2,2v44.01c0,1.1-.89,1.99-1.99,1.99H2.49c-1.1,0-1.99-.89-1.99-1.99V2.5C.5,1.4,1.4.5,2.5.5Z"/>
  <path class="cls-4" d="M2.51.5h43.97c1.11,0,2.01.9,2.01,2.01v10.06H.5V2.51C.5,1.4,1.4.5,2.51.5Z"/>
  <g>
    <path class="cls-1" d="M7.01,15.81c0-.09.02-.15.09-.15.19,0,.71.4.71.59,0,.08-.1.29-.24.53,1.36,1.88,3,3.24,4.63,4.21.1.06.15.11.15.17,0,.09-.36.52-.57.52-.17,0-2.61-1.68-4.55-4.3-1.87,3.02-4.39,4.66-4.67,4.66-.06,0-.09-.03-.09-.09,0-.08.07-.2.23-.34,1.68-1.47,3.29-3.36,4.22-5.3.05-.12.09-.28.09-.44v-.06ZM5.25,22.42c-.12,0-.23.01-.32.01-.22,0-.27-.08-.28-.09-.02-.02-.04-.04-.05-.07-.03-.04-.23-.35-.23-.5,0-.05.02-.07.06-.07.02,0,.04,0,.07.01.14.03.31.06.45.06h.09l4.62-.26h.13c.32,0,.45.27.45.41s-.11.24-.15.29c-.73.96-1.5,1.82-2.26,2.6.93.72.95.76.95.88,0,.17-.27.54-.42.54-.06,0-.12-.04-.2-.12-.72-.7-1.55-1.39-2.28-1.92-.11-.08-.16-.15-.16-.24,0-.1.11-.38.33-.38.26,0,1.04.64,1.26.83.76-.75,1.33-1.46,1.87-2.18l-3.93.2ZM8.27,21.01c-.63-.33-1.49-.69-2.16-.93-.13-.04-.19-.11-.19-.25,0-.19.05-.4.25-.4.27,0,1.61.52,2.39.87.13.06.2.12.2.24,0,.09-.09.52-.32.52-.05,0-.1-.02-.16-.06Z"/>
    <path class="cls-1" d="M15.96,19.91v.54s.07-.03.1-.03c.26,0,1.81,1.67,1.81,1.97,0,.18-.35.43-.43.43s-.14-.07-.24-.2c-.42-.6-.82-1.11-1.25-1.55v4.7c0,.19-.06.29-.17.29-.21,0-.52-.25-.52-.5,0-.03,0-.08.01-.11.03-.23.05-.46.05-.7,0,0,.01-1.82.02-2.95,0-.38.06-1,.06-1-.53,1.49-2.23,3.53-2.5,3.53-.05,0-.08-.05-.08-.11s.03-.16.1-.27c.82-1.26,1.63-2.61,2.15-3.96l-1.01.1c-.11.01-.21.01-.29.01-.13,0-.42,0-.58-.53-.01-.02-.01-.05-.01-.07,0-.05.02-.07.07-.07,0,0,.03.01.05.01.13.02.28.03.41.03h.13l1.49-.14v-1.57c-1.57.58-1.74.58-1.88.58-.1,0-.15-.04-.15-.1,0-.07.06-.15.19-.2,1.16-.51,2.27-1.19,3.04-1.68.14-.09.19-.19.26-.33.03-.07.06-.11.1-.11.13,0,.51.5.51.78,0,.07-.02.11-.06.14-.44.25-.91.51-1.39.7v1.75l.82-.08c.14-.01.31-.05.46-.1.03-.01.05-.01.08-.01.23,0,.55.35.55.51,0,.09-.09.14-.23.15l-1.69.16ZM19,23.38v.42s.01.05.01.05c0,.14-.05.19-.13.19-.06,0-.14-.02-.25-.07-.23-.1-.31-.21-.31-.38v-.06c.02-.25.02-.46.02-.66l-.08-3.57c-.01-.21-.06-.37-.15-.57-.03-.08-.06-.14-.06-.18s.03-.07.09-.07c.1,0,.33.07.72.21l2.49-.15s.06-.01.09-.01c.16,0,.45.25.45.43,0,.09-.05.15-.06.21l-.26,3.48c.21.25.3.4.3.49,0,.11-.15.11-.33.12l-2.54.1ZM21.14,19.22l-2.24.11.08,3.38,1.97-.07.19-3.43Z"/>
    <path class="cls-1" d="M27.94,20.12c-.13.01-.25.02-.35.02-.06,0-.11-.01-.15-.01-.04-.01-.07-.03-.09-.05-.21-.17-.38-.55-.38-.69,0-.06.03-.08.08-.08.02,0,.05,0,.08.01.13.04.29.06.44.06h.12l3.25-.18-.02-2.22c0-.23-.08-.37-.18-.55-.02-.03-.03-.07-.03-.09,0-.06.05-.09.16-.09s.81.1.81.43v2.48s2.94-.18,2.94-.18c.13-.01.31-.03.45-.09.03-.01.06-.02.09-.02.13,0,.6.33.6.6,0,.14-.11.21-.26.23l-7.57.43ZM27.11,25.42c0-.09.08-.25.25-.45.95-1.15,1.62-2.23,2.12-3.21.06-.12.11-.29.11-.51,0-.11.03-.18.1-.18.16,0,.7.49.7.79,0,.03,0,.07-.02.09-1.22,2.01-2.9,3.55-3.17,3.55-.05,0-.08-.03-.08-.08ZM35.01,25.28c-.09,0-.17-.06-.26-.17-.73-1.06-1.76-2.48-2.46-3.29-.06-.07-.08-.14-.08-.19,0-.25.3-.42.38-.42s.15.04.25.15c.76.81,1.74,2.04,2.57,3.15.06.09.09.17.09.25,0,.17-.27.52-.49.52Z"/>
    <path class="cls-1" d="M42.27,22.72v3.19c-.01.17-.08.24-.18.24s-.54-.1-.54-.49c0-.03.01-.07.01-.1.03-.23.04-.44.04-.68v-2.13s-3.56.19-3.56.19c-.14.01-.26.01-.35.01-.51,0-.63-.57-.63-.66,0-.05.02-.07.07-.07.02,0,.04,0,.07.01.18.05.35.07.49.07h.08l1.69-.09-.08-1.9h-.17c-.17,0-.27-.02-.39-.12-.26-.24-.27-.51-.27-.51,0-.05.02-.07.07-.07.02,0,.04,0,.07.01.18.05.35.07.49.07h.08l2.38-.16v-1.59s-1.98.14-1.98.14c-.71,1.13-1.59,2-1.81,2-.03,0-.05-.02-.05-.07,0-.06.03-.14.1-.24,1.36-1.84,1.81-3.28,1.81-3.65,0-.05,0-.09-.01-.14v-.06c0-.09.02-.14.09-.14.04,0,.74.21.74.52,0,.05-.01.09-.03.14-.14.33-.3.66-.46.98l3.93-.27c.14-.01.31-.05.46-.1.03-.01.07-.02.11-.02.21,0,.53.37.53.53,0,.11-.11.16-.26.17l-2.54.17v1.59l1.33-.09c.16-.01.33-.05.47-.1.03-.01.06-.02.1-.02.2,0,.56.42.56.55,0,.1-.1.14-.24.15l-2.24.15v1.93l2.87-.16c.16-.01.33-.05.47-.1.03-.01.06-.02.09-.02.08,0,.57.33.57.58,0,.1-.1.14-.24.15l-3.77.2ZM41.63,20.18l-1.63.1.07,1.91,1.55-.08v-1.93Z"/>
  </g>
  <g>
    <path class="cls-1" d="M4.84,46.26c-.21,0-.37-.29-.37-.51,0-.05,0-.11.03-.15.08-.14.15-.21.21-.32.35-.7,1.32-1.81,2.32-2.74.92-.85,1.4-1.45,1.4-2.15,0-.64-.48-1.09-1.23-1.09-.87,0-1.47.43-1.67,1.04-.04.14-.17.28-.3.28-.18,0-.35-.33-.35-.48,0-.26.58-1.52,2.34-1.52,1.23,0,1.87.72,1.87,1.77,0,.91-.63,1.76-1.65,2.67-.93.83-1.75,1.65-2.17,2.47.36-.04,1.3-.05,1.64-.05.45,0,1.07.01,1.45.01.16,0,.46-.01.58-.01.15,0,.3.33.3.55,0,.11-.04.19-.13.19-.12,0-.43-.04-.75-.06-.37-.02-1.03-.02-1.52-.02-.99,0-1.37,0-1.94.12h-.04Z"/>
    <path class="cls-1" d="M15.98,38.63c1.43,0,2.19,1.63,2.19,3.82s-.83,3.96-2.31,3.96c-1.74,0-2.3-1.73-2.3-3.78,0-1.81.8-3.43,1.09-3.43.05,0,.11.04.14.1.3-.43.77-.67,1.18-.67ZM17.52,42.39c0-1.62-.57-3.09-1.58-3.09-.71,0-1.73,1.15-1.73,3.31,0,1.95.48,3.13,1.63,3.13,1.01,0,1.69-1.26,1.69-3.35Z"/>
    <path class="cls-1" d="M22.73,46.26c-.21,0-.37-.29-.37-.51,0-.05,0-.11.03-.15.08-.14.15-.21.21-.32.35-.7,1.32-1.81,2.32-2.74.92-.85,1.4-1.45,1.4-2.15,0-.64-.48-1.09-1.23-1.09-.87,0-1.47.43-1.67,1.04-.04.14-.17.28-.3.28-.18,0-.35-.33-.35-.48,0-.26.58-1.52,2.34-1.52,1.23,0,1.87.72,1.87,1.77,0,.91-.63,1.76-1.65,2.67-.93.83-1.75,1.65-2.17,2.47.36-.04,1.3-.05,1.64-.05.45,0,1.07.01,1.45.01.16,0,.46-.01.58-.01.15,0,.3.33.3.55,0,.11-.04.19-.13.19-.12,0-.43-.04-.75-.06-.37-.02-1.03-.02-1.52-.02-.99,0-1.37,0-1.94.12h-.04Z"/>
    <path class="cls-1" d="M34.96,44.52v.61c0,.44.04.86.04,1.11,0,.07-.08.11-.19.11-.2,0-.48-.12-.48-.3,0-.17.02-.79.02-.94v-.55l-2.46.13c-.07,0-.21.02-.33.06-.02.01-.04.01-.06.01-.19,0-.41-.25-.41-.5q0-.12.38-.71c.77-1.22,1.79-2.93,2.24-3.86.13-.28.26-.6.38-.96.02-.05.05-.07.09-.07.16,0,.46.34.46.58,0,.03,0,.06-.03.1-.3.55-.96,1.76-2.76,4.71l2.51-.12v-2.14c0-.2-.03-.89-.03-1.14,0-.07.08-.11.18-.11.2,0,.48.12.48.3,0,.17-.02.69-.02.95v2.11h.29c.24-.02.54-.07.65-.07.15,0,.29.34.29.55,0,.1-.03.17-.1.17-.12,0-.48-.02-.83-.02h-.3Z"/>
    <path class="cls-1" d="M43.3,44.02v3c0,.16-.07.22-.16.22s-.47-.1-.47-.46c0-.03,0-.06,0-.1.03-.21.04-.42.04-.64v-2s-3.11.18-3.11.18c-.13.01-.22.01-.3.01-.45,0-.55-.53-.55-.62,0-.04.02-.06.06-.06.02,0,.04,0,.06.01.16.04.3.06.43.06h.07l1.48-.09-.07-1.79h-.15c-.15,0-.23-.02-.34-.12-.22-.22-.23-.48-.23-.48,0-.04.02-.06.06-.06.02,0,.04,0,.06.01.16.04.3.06.43.06h.07l2.07-.15v-1.5s-1.73.13-1.73.13c-.62,1.06-1.39,1.89-1.58,1.89-.03,0-.04-.02-.04-.06,0-.05.03-.13.09-.22,1.19-1.74,1.58-3.09,1.58-3.44,0-.04,0-.08,0-.13v-.05c0-.08.02-.13.08-.13.04,0,.64.2.64.49,0,.04,0,.08-.03.13-.12.31-.26.62-.4.93l3.43-.26c.12-.01.27-.04.4-.1.03-.01.06-.02.1-.02.18,0,.47.35.47.5,0,.11-.1.15-.22.16l-2.22.16v1.5l1.16-.08c.14-.01.29-.04.41-.1.03-.01.05-.02.09-.02.18,0,.49.39.49.52,0,.1-.09.13-.21.14l-1.96.14v1.82l2.5-.15c.14-.01.29-.04.41-.1.03-.01.05-.02.08-.02.07,0,.5.31.5.54,0,.1-.09.13-.21.14l-3.29.19ZM42.74,41.62l-1.42.1.06,1.8,1.35-.07v-1.82Z"/>
  </g>
  <g>
    <ellipse class="cls-5" cx="24.68" cy="31.38" rx="3.94" ry="4.57"/>
    <polygon class="cls-3" points="24.68 34.43 26.78 32.07 25.29 32.07 25.29 30.7 26.78 30.7 24.68 28.34 22.58 30.7 24.07 30.7 24.07 32.07 22.58 32.07 24.68 34.43"/>
  </g>
  <g>
    <path class="cls-3" d="M22.15,6.7c.23,0,.38.25.38.38,0,.12-.12.17-.17.23-.33.4-.68.75-1.05,1.04.84.46,1.66.79,2.72,1.01.1.02.15.06.15.12,0,.11-.19.43-.33.43-.03,0-1.35-.34-2.93-1.26-1.37.97-3.01,1.25-3.17,1.25-.09,0-.14-.03-.14-.07s.07-.11.2-.15c.97-.31,1.9-.76,2.68-1.31-.33-.24-.66-.5-.98-.79-.76.72-1.29.91-1.33.91-.04,0-.06-.02-.06-.04,0-.04.04-.11.13-.19.54-.46,1.73-1.64,1.73-2.11v-.08c0-.08.02-.12.07-.12.12,0,.45.32.45.45,0,.03-.01.06-.03.08l-.26.34,1.86-.12h.07ZM18.1,6.09c-.09.05-.15.08-.2.08-.03,0-.05-.02-.05-.04,0-.04.04-.11.14-.2.99-1,1.05-1.42,1.07-1.57,0-.09.04-.13.08-.13.09,0,.41.29.41.45,0,.12-.79,1.04-1.45,1.42ZM21.74,3.81l.04,1.83c0,.08.02.17.02.26,0,.36-.28.45-.31.45-.21,0-1.05-.77-1.05-.94,0-.03.02-.05.06-.05.05,0,.13.02.25.09.17.1.41.22.57.27l-.02-1.88-.76.05c-.06,1.2-.39,1.88-1.27,2.56-.08.06-.15.08-.18.08s-.05-.02-.05-.05c0-.04.03-.1.09-.18.57-.66.92-1.34.94-2.39l-1.49.1c-.09,0-.17.02-.25.02-.12,0-.21-.02-.27-.09-.11-.13-.18-.32-.18-.38,0-.03.01-.05.05-.05.01,0,.03,0,.04,0,.12.03.23.03.34.03h.09l2.16-.15v-.57c0-.13-.04-.25-.09-.35-.02-.03-.03-.06-.03-.08,0-.04.04-.06.12-.06.07,0,.49.03.49.2v.83l1.92-.13c.12,0,.25-.02.37-.07.01,0,.04,0,.05,0,.15,0,.42.24.42.4,0,.07-.05.12-.12.13l-1.96.13ZM19.81,7.27c.34.31.7.58,1.06.82.35-.28.65-.58.91-.91l-1.97.09ZM23.39,5.84c-.36-.4-.83-.84-1.23-1.15-.07-.05-.09-.09-.09-.14,0-.06.11-.29.23-.29.12,0,1.5,1.14,1.5,1.36,0,.1-.15.33-.26.33-.05,0-.09-.04-.15-.1Z"/>
    <path class="cls-3" d="M25.89,7.07c-.36.29-.64.51-.76.51-.03,0-.05,0-.08-.02-.23-.1-.36-.33-.36-.35,0-.03.03-.06.08-.07.2-.03.37-.13,1.13-.61v-1.67s-.46.04-.46.04c-.11,0-.2.02-.26.02-.06,0-.23,0-.35-.4,0-.02,0-.03,0-.05,0-.03,0-.03.03-.03.01,0,.03,0,.04,0,.06.02.13.03.22.03.05,0,.11,0,.17,0l.62-.05v-1.34c0-.2-.02-.3-.12-.47-.01-.03-.02-.04-.02-.07,0-.03.03-.06.09-.06.1,0,.5.1.5.36v1.54s.15-.02.15-.02c.1,0,.17-.03.27-.09.01,0,.03,0,.04,0,.12,0,.38.26.38.37,0,.08-.09.12-.17.13l-.68.08v1.42c.22-.15.44-.31.65-.47.06-.05.12-.07.15-.07s.06.02.06.06c0,.08-.12.25-.87.93v2.36c-.01.11,0,.21,0,.31,0,.28-.19.48-.36.48-.29,0-1.01-.88-1.01-1.14,0-.03.01-.04.04-.04.04,0,.1.04.2.12.19.15.44.3.68.41v-2.13ZM29.39,7.81c.62.81,1.23,1.28,2.14,1.65.05.02.09.05.09.1s-.2.38-.36.38c-.05,0-1.19-.4-2.24-1.97-.49,1.17-1.31,1.64-2.21,1.95-.06.02-.1.03-.14.03-.07,0-.12-.03-.12-.08,0-.05.06-.12.17-.17.86-.4,1.53-1.02,1.87-1.84l-1.21.07h-.12c-.15,0-.36-.02-.44-.43,0-.02,0-.02,0-.04,0-.03.01-.04.04-.04,0,0,.01,0,.03,0,.12.03.23.06.35.06h.06l1.45-.08c.03-.13.07-.4.07-.46,0-.08,0-.15-.04-.24,0-.03-.01-.05-.01-.07,0-.04.02-.06.06-.06.03,0,.47.12.47.32v.03c-.03.15-.06.3-.09.44l1.48-.08c.14,0,.24-.03.34-.08.02,0,.04-.02.07-.02.12,0,.34.29.34.4,0,.06-.05.09-.15.1l-1.92.1ZM30.42,4.97l-.76.05-.02.81v.05c0,.11.02.13.09.14.03,0,.05,0,.08,0s.07,0,.11-.02c.04,0,.09-.03.15-.05,0,0,.01,0,.02,0,.08,0,.23.19.23.33,0,.03,0,.08-.09.11-.15.03-.29.05-.42.05-.33,0-.57-.07-.57-.49v-.91s-.29.03-.29.03c-.19,1.36-.86,1.64-.94,1.64-.03,0-.04-.02-.04-.04,0-.04.03-.11.09-.18.31-.38.42-.85.46-1.4l-.63.04.09,1.97v.03c0,.1-.04.15-.12.15-.04,0-.08-.02-.14-.04-.12-.08-.2-.15-.2-.28v-.04c.02-.14.03-.28.03-.42v-.14l-.06-1.21c0-.13-.04-.25-.07-.3v-.03c-.26.19-.33.25-.4.25-.03,0-.04-.02-.04-.03,0-.03.03-.09.09-.16.6-.65,1-1.37,1.32-2.06.05-.1.07-.21.07-.35v-.06c0-.08.01-.12.06-.12.09,0,.41.27.41.42,0,.03,0,.08-.03.11-.1.2-.2.4-.31.57l1.1-.1s.06,0,.08,0c.1,0,.35.15.35.3,0,.11-.65.9-.76,1.01l1.18-.09h.05c.14,0,.29.16.29.26,0,.07-.04.12-.05.18l-.09,1.95c0,.13-.06.22-.14.22-.15,0-.33-.24-.33-.35,0-.03,0-.06.01-.08.04-.13.05-.25.06-.4l.07-1.32ZM28.33,3.85c-.2.29-.43.55-.7.79.07.02.17.04.27.08l.94-.08c.31-.34.56-.63.7-.9l-1.22.1Z"/>
  </g>
</svg>